<?xml version="1.0" encoding="utf-8"?>
<!-- Generator: Adobe Illustrator 22.1.0, SVG Export Plug-In . SVG Version: 6.00 Build 0)  -->
<svg version="1.1" id="Layer_1" xmlns="http://www.w3.org/2000/svg" xmlns:xlink="http://www.w3.org/1999/xlink" x="0px" y="0px"
	 viewBox="0 0 16 16" style="enable-background:new 0 0 16 16;" xml:space="preserve">
<style type="text/css">
	.st0{opacity:0.7;}
	.st1{fill:#FA4B2D;}
	.st2{fill:#99A8B0;}
	.st3{display:none;}
	.st4{font-family:'Corbel-Bold';}
	.st5{font-size:8px;}
</style>
<g class="st0">
	<rect x="1" y="9" class="st1" width="15" height="7"/>
	<path class="st2" d="M8,1v5H3v2h10V1H8z"/>
	<path class="st2" d="M7,1v4H3L7,1z"/>
	<g>
		<path d="M2.6,15.1V9.9h1v2.4h0l2-2.4h1.2l-2.2,2.6l2.4,2.6H5.7l-2.1-2.4h0v2.4H2.6z"/>
		<path d="M11,13.2c0,0.3,0,0.6-0.1,0.8c-0.1,0.2-0.2,0.5-0.4,0.6c-0.2,0.2-0.4,0.3-0.6,0.4s-0.5,0.1-0.8,0.1c-0.3,0-0.6,0-0.8-0.1
			s-0.4-0.2-0.6-0.4S7.4,14.3,7.3,14s-0.1-0.5-0.1-0.8s0-0.6,0.1-0.8c0.1-0.2,0.2-0.5,0.4-0.6c0.2-0.2,0.4-0.3,0.6-0.4
			c0.2-0.1,0.5-0.1,0.8-0.1c0.3,0,0.6,0,0.8,0.1c0.2,0.1,0.4,0.2,0.6,0.4c0.2,0.2,0.3,0.4,0.4,0.6C11,12.6,11,12.9,11,13.2z
			 M10.1,13.2c0-0.2,0-0.4-0.1-0.5c0-0.2-0.1-0.3-0.2-0.4c-0.1-0.1-0.2-0.2-0.3-0.2C9.4,12,9.2,12,9.1,12C9,12,8.8,12,8.7,12
			c-0.1,0.1-0.2,0.1-0.3,0.2c-0.1,0.1-0.1,0.2-0.2,0.4c0,0.2-0.1,0.3-0.1,0.5c0,0.2,0,0.4,0.1,0.5s0.1,0.3,0.2,0.4s0.2,0.2,0.3,0.2
			c0.1,0.1,0.2,0.1,0.4,0.1c0.1,0,0.3,0,0.4-0.1c0.1-0.1,0.2-0.1,0.3-0.2c0.1-0.1,0.1-0.2,0.2-0.4S10.1,13.4,10.1,13.2z"/>
		<path d="M12,15.1V9.9h1v5.2H12z"/>
	</g>
	<text transform="matrix(1 0 0 1 2.0002 15.0837)" class="st3 st4 st5">KoI</text>
</g>
</svg>
