<?xml version="1.0" encoding="utf-8"?>
<!-- Generator: Adobe Illustrator 22.1.0, SVG Export Plug-In . SVG Version: 6.00 Build 0)  -->
<svg version="1.1" id="Layer_1" xmlns="http://www.w3.org/2000/svg" xmlns:xlink="http://www.w3.org/1999/xlink" x="0px" y="0px"
	 viewBox="0 0 16 16" style="enable-background:new 0 0 16 16;" xml:space="preserve">
<style type="text/css">
	.st0{opacity:0.7;}
	.st1{fill:#FA4B2D;}
	.st2{fill:#99A8B0;}
	.st3{display:none;}
	.st4{display:inline;fill:#231F20;}
	.st5{fill:#231F20;}
</style>
<g class="st0">
	<rect x="1" y="9" class="st1" width="15" height="7"/>
	<path class="st2" d="M8,1v5H3v2h10V1H8z"/>
	<path class="st2" d="M7,1v4H3L7,1z"/>
	<g transform="matrix(1.18549 0 0 1.18549 .0214974 -2.54905)" class="st3">
		<path class="st4" d="M3,12.4h0.6c0.4,0,0.6,0,0.8,0c0.1,0,0.2-0.1,0.3-0.2c0.1-0.1,0.1-0.2,0.1-0.3c0-0.1,0-0.3-0.1-0.3
			c-0.1-0.1-0.2-0.1-0.3-0.2H3L3,12.4z M2.2,14.9v-4.3h1.8c0.4,0,0.8,0,1,0.1c0.2,0.1,0.4,0.2,0.5,0.4c0.1,0.2,0.2,0.4,0.2,0.7
			c0,0.3-0.1,0.6-0.3,0.8C5.1,12.9,4.8,13,4.5,13c0.2,0.1,0.3,0.2,0.5,0.3c0.1,0.1,0.3,0.3,0.5,0.7L6,14.9h-1L4.3,14
			c-0.2-0.3-0.4-0.6-0.4-0.6c-0.1-0.1-0.2-0.2-0.3-0.2c-0.1,0-0.2,0-0.4,0H3v1.8L2.2,14.9z"/>
		<path class="st4" d="M7.6,13.1c0.8,0.2,1,0.3,1,0.6s-0.3,0.5-0.8,0.5H6.2v0.7h1.6c0.9,0,1.6-0.5,1.6-1.2c0-0.7-0.5-1-1.4-1.2
			c-0.9-0.2-1-0.3-1-0.6c0-0.3,0.3-0.5,0.7-0.5h1.2v-0.7H7.7c-0.9,0-1.5,0.5-1.5,1.2C6.2,12.6,6.7,12.9,7.6,13.1"/>
	</g>
	<g>
		<path class="st5" d="M2.6,15.2V9.9h1v2.4h0l2-2.4h1.2l-2.2,2.6l2.4,2.6H5.7l-2.1-2.4h0v2.4H2.6z"/>
		<path class="st5" d="M8.3,15.2h-1V9.9h3.3v0.8H8.3v1.4h2v0.8h-2V15.2z"/>
	</g>
</g>
</svg>
